<?xml version="1.0" standalone="no"?>
<!DOCTYPE svg PUBLIC "-//W3C//DTD SVG 20010904//EN"
 "http://www.w3.org/TR/2001/REC-SVG-20010904/DTD/svg10.dtd">
<svg version="1.0" xmlns="http://www.w3.org/2000/svg"
 width="1920.000000pt" height="750.000000pt" viewBox="0 0 1920.000000 750.000000"
 preserveAspectRatio="xMidYMid meet">

<g transform="translate(0.000000,750.000000) scale(0.100000,-0.100000)"
fill="#000000" stroke="none">
<path d="M2890 7281 c-19 -5 -59 -18 -88 -30 -29 -11 -62 -21 -72 -21 -27 0
-134 -37 -195 -68 -65 -32 -196 -160 -250 -242 -91 -140 -142 -273 -209 -550
-25 -102 -55 -210 -66 -240 -41 -111 -57 -418 -36 -722 10 -146 1 -210 -46
-327 -94 -231 -89 -210 -94 -405 -3 -98 -9 -188 -14 -200 -4 -12 -28 -44 -52
-71 -55 -62 -121 -173 -150 -251 -33 -90 -36 -235 -8 -362 16 -78 19 -105 10
-121 -9 -17 -8 -21 4 -21 9 0 18 -12 21 -27 23 -105 42 -166 71 -223 19 -35
34 -74 34 -87 0 -12 4 -24 9 -27 18 -11 34 -126 27 -198 -7 -80 -23 -141 -66
-263 -15 -44 -31 -91 -34 -105 -4 -14 -14 -49 -22 -78 -13 -51 -40 -192 -64
-337 0 -1 9 -1 19 -1 21 0 32 23 66 136 9 30 20 64 25 75 5 11 21 58 35 105
15 47 56 155 90 240 53 131 76 192 121 330 11 31 21 -14 29 -120 9 -123 9
-136 0 -173 -5 -20 -3 -33 10 -47 14 -15 16 -28 10 -57 -4 -21 -7 -45 -6 -53
8 -189 1 -308 -22 -340 -20 -29 -22 -59 -5 -95 9 -21 9 -31 0 -46 -7 -10 -12
-36 -12 -56 -1 -21 -7 -49 -15 -63 -7 -14 -11 -37 -8 -52 3 -17 -1 -38 -11
-53 -12 -19 -14 -30 -7 -44 8 -14 4 -34 -14 -80 -24 -62 -34 -148 -21 -188 10
-32 -29 -83 -64 -83 -43 0 -58 -20 -85 -120 -15 -52 -36 -111 -47 -131 l-20
-36 25 -49 c13 -27 36 -83 51 -124 39 -105 97 -248 148 -361 74 -164 255 -480
319 -559 33 -40 88 -116 121 -167 l61 -93 221 0 222 0 21 43 c41 84 170 249
471 600 41 49 164 172 274 274 176 165 279 275 483 518 32 39 71 78 87 88 l28
19 0 121 c1 91 4 127 15 141 8 11 15 31 15 45 0 14 11 48 24 76 14 27 31 79
40 115 8 36 31 104 50 152 20 48 36 96 36 105 1 37 58 226 74 241 20 20 28 12
37 -41 5 -33 7 -24 8 45 0 47 8 169 17 270 14 156 14 205 3 338 -6 85 -15 268
-18 405 -5 224 -8 254 -26 285 l-20 35 -7 -118 c-7 -116 -20 -181 -39 -193 -6
-3 -33 20 -62 52 -107 120 -208 201 -518 419 -158 111 -344 257 -519 408 -167
144 -179 155 -202 201 -11 22 -24 43 -28 46 -15 11 -41 73 -42 102 -1 35 15
48 61 48 24 0 32 4 28 14 -3 7 3 20 14 29 11 10 19 30 19 46 0 21 6 32 19 36
14 4 22 19 27 52 7 47 41 112 59 113 6 0 29 19 50 42 l40 42 -47 -38 c-27 -20
-87 -56 -135 -79 -83 -39 -93 -41 -178 -42 -72 0 -97 4 -125 20 -40 23 -133
96 -139 108 -10 23 -68 77 -83 77 -9 0 -20 5 -24 12 -5 7 -2 9 7 4 8 -4 1 2
-14 14 -24 19 -54 64 -59 87 -1 5 -6 13 -12 20 -29 33 -36 43 -36 53 0 5 -4
10 -10 10 -5 0 -10 4 -10 9 0 5 -18 36 -40 69 -65 96 -92 180 -98 301 l-5 103
49 -6 c27 -4 83 -2 123 4 111 16 137 50 84 110 -22 24 -43 34 -92 44 -84 16
-93 36 -16 35 59 -2 79 10 71 42 -2 12 2 15 15 12 11 -3 25 -1 32 5 16 13 72
8 92 -8 13 -11 15 -9 15 13 0 37 12 39 52 12 l35 -24 13 25 c9 16 22 24 40 24
14 0 31 5 37 11 9 9 21 8 48 -5 19 -9 39 -14 44 -11 5 3 13 0 17 -7 4 -7 4
-10 -1 -6 -11 10 -86 -74 -80 -90 3 -8 5 -24 5 -37 0 -33 55 -59 85 -39 11 7
42 14 68 15 26 1 47 6 47 11 0 4 6 8 14 8 8 0 16 4 18 9 2 5 25 23 52 40 l49
31 -36 15 c-42 17 -48 25 -14 19 12 -2 5 5 -18 16 -31 16 -53 20 -97 16 -45
-3 -58 -1 -58 10 0 8 7 14 15 14 8 0 19 9 25 20 7 13 21 20 40 20 22 0 28 4
24 15 -4 8 -1 15 5 15 6 0 11 -4 11 -10 0 -13 57 -13 65 -1 5 9 16 9 78 -5 26
-5 27 -4 17 21 -15 39 -13 39 29 6 21 -17 41 -31 45 -31 3 0 -10 36 -29 80
-19 44 -31 80 -27 79 4 -1 52 -49 107 -108 l101 -108 33 -104 c49 -154 47
-151 56 -99 8 48 21 80 33 80 12 0 42 -56 42 -78 0 -11 -7 -25 -15 -32 -8 -7
-15 -16 -15 -21 0 -15 20 -10 43 12 22 21 123 89 132 89 3 0 5 -9 5 -20 0 -11
5 -20 10 -20 32 0 -20 -97 -89 -164 -34 -33 -46 -39 -88 -40 l-48 -1 -11 -115
c-7 -63 -18 -140 -26 -170 -11 -45 -12 -62 -2 -90 7 -19 13 -50 13 -68 1 -18
10 -54 20 -80 11 -26 28 -78 37 -117 10 -43 29 -88 50 -118 19 -26 34 -51 34
-55 0 -16 135 -138 183 -166 74 -43 130 -56 292 -68 83 -5 175 -12 205 -14 30
-2 62 0 70 6 12 8 11 12 -6 32 -21 23 -38 63 -69 168 -21 70 -167 370 -211
433 -19 26 -34 50 -34 54 0 3 -11 20 -24 37 -30 40 -72 124 -101 201 -18 47
-24 91 -29 205 -9 186 -43 310 -119 438 -68 115 -125 234 -166 347 -23 61 -88
186 -125 240 -12 17 -53 66 -92 110 -59 67 -86 88 -160 126 -142 74 -232 101
-349 105 -55 2 -116 -1 -135 -5z m100 -732 c0 -5 4 -8 9 -5 11 7 23 -22 15
-35 -3 -5 2 -9 10 -9 8 0 27 -22 42 -50 15 -27 31 -50 36 -50 4 0 8 -7 8 -16
0 -12 -7 -14 -32 -9 -46 10 -61 26 -80 87 -23 74 -28 98 -17 98 5 0 9 -5 9
-11z m177 -345 c-3 -3 -12 -4 -19 -1 -8 3 -5 6 6 6 11 1 17 -2 13 -5z m4 -75
c-25 -24 -34 -24 -23 -1 5 9 7 23 4 30 -3 11 0 12 18 2 l22 -12 -21 -19z
m-119 -37 c-22 -6 -62 7 -62 20 0 6 7 19 16 29 16 17 18 17 38 -14 17 -25 19
-33 8 -35z m-628 9 c7 -10 -69 -63 -78 -54 -3 4 -6 19 -6 35 0 26 3 28 39 28
22 0 42 -4 45 -9z m56 -69 c0 -10 7 -28 16 -40 14 -21 14 -22 -6 -22 -27 0
-60 17 -60 32 0 14 30 48 42 48 4 0 8 -8 8 -18z m-716 -1769 c-17 -39 -28 -82
-44 -166 -5 -26 -14 -62 -19 -80 -6 -17 -17 -61 -25 -96 -9 -35 -18 -66 -21
-70 -24 -23 -33 112 -15 207 11 60 58 162 102 223 36 49 47 40 22 -18z m-24
-719 c0 -8 -4 -12 -10 -9 -5 3 -10 13 -10 21 0 8 5 12 10 9 6 -3 10 -13 10
-21z m960 -2164 c94 -13 110 -18 110 -37 0 -11 -7 -14 -22 -10 -136 32 -200
40 -218 29 -31 -19 -38 -13 -11 8 26 23 36 23 141 10z m302 -85 c-1 -11 -8
-71 -14 -133 -11 -105 -13 -113 -32 -110 -12 2 -20 8 -19 15 1 6 5 60 8 119 8
132 9 136 37 132 16 -2 22 -9 20 -23z m-422 -50 c0 -8 -9 -15 -20 -15 -15 0
-20 -7 -21 -27 -1 -23 -2 -24 -6 -6 -2 12 1 31 7 42 12 24 40 28 40 6z m124
-141 c85 -7 114 -18 80 -31 -21 -8 -203 27 -211 40 -4 6 4 7 19 4 14 -4 64
-10 112 -13z"/>
<path d="M7153 6824 c-72 -35 -118 -91 -209 -257 l-79 -142 -5 -120 c-4 -99
-9 -126 -25 -149 -11 -16 -24 -36 -30 -45 -5 -8 -25 -33 -42 -55 -18 -22 -33
-44 -33 -48 0 -5 -11 -33 -25 -63 l-26 -53 -47 26 -47 26 27 -28 c15 -16 30
-38 34 -50 7 -20 7 -20 14 -1 6 17 10 14 34 -24 15 -23 30 -40 34 -36 4 3 0
10 -8 15 -8 5 -11 12 -7 16 4 4 41 -16 81 -44 41 -29 77 -52 80 -52 20 0 -5
25 -79 80 -93 69 -95 80 -15 80 61 0 120 18 148 43 57 53 84 149 75 270 -5 64
-9 77 -23 77 -26 0 -42 25 -34 54 7 29 14 32 34 14 12 -11 12 -10 2 3 -13 17
1 39 24 39 6 0 17 12 23 28 18 42 55 82 79 87 13 2 20 0 17 -6 -4 -5 -11 -7
-16 -4 -5 4 -9 0 -9 -7 0 -9 13 -13 38 -14 39 0 152 -42 152 -56 0 -8 35 -5
98 8 20 4 22 2 13 -14 -13 -24 -5 -32 30 -32 15 0 39 -4 53 -9 23 -9 24 -13
20 -68 -11 -121 -111 -270 -216 -321 -31 -15 -50 -31 -52 -45 -34 -161 -32
-198 8 -224 30 -19 33 -26 39 -85 3 -34 12 -79 20 -98 8 -19 18 -44 22 -55 5
-11 9 -24 9 -28 2 -15 90 -114 112 -127 29 -16 92 -115 100 -157 4 -21 2 -44
-6 -58 -7 -13 -10 -37 -8 -55 3 -17 1 -33 -4 -36 -15 -9 2 -24 27 -24 31 0 89
35 109 65 9 13 16 45 16 70 0 47 9 56 30 30 7 -8 16 -13 20 -10 4 2 24 -5 46
-16 32 -16 35 -16 16 -2 -95 72 -135 133 -125 187 6 28 18 34 26 14 4 -10 6
-10 6 0 1 7 19 56 42 109 49 116 49 123 -17 290 -43 108 -46 120 -40 182 20
222 21 207 -22 367 -22 82 -47 183 -56 225 -41 183 -141 308 -248 309 -18 0
-42 7 -52 15 -29 22 -94 17 -153 -11z m-177 -350 c-3 -27 -36 -68 -36 -45 0 7
5 22 11 34 9 16 9 22 0 25 -6 2 -9 8 -6 12 11 18 33 -2 31 -26z m759 -988 c-9
-21 -19 -36 -21 -33 -3 3 -1 14 4 24 5 10 13 41 18 68 8 47 9 48 12 15 1 -20
-4 -53 -13 -74z"/>
<path d="M1310 6676 c0 -22 10 -28 93 -56 169 -57 166 -49 30 -96 -111 -39
-118 -43 -118 -68 0 -25 8 -30 105 -68 58 -22 109 -44 113 -48 5 -5 -17 -16
-50 -25 -187 -53 -178 -49 -181 -78 -2 -17 1 -27 10 -27 7 0 79 19 161 41
l147 42 0 36 0 36 -102 39 c-57 22 -106 42 -110 46 -4 3 43 23 105 45 l112 40
0 34 0 34 -145 49 c-79 26 -150 48 -157 48 -7 0 -13 -11 -13 -24z"/>
<path d="M6075 6468 c-24 -19 -50 -66 -69 -124 -6 -20 1 -25 71 -52 43 -17 86
-33 95 -37 12 -5 21 4 36 37 29 66 34 97 22 134 -20 61 -102 84 -155 42z m107
-35 c21 -18 24 -69 6 -108 -13 -30 -14 -30 -64 -9 -22 9 -49 20 -61 25 -21 8
-22 11 -11 36 29 69 88 94 130 56z"/>
<path d="M10033 6436 c-54 -13 -130 -67 -160 -113 -22 -34 -63 -161 -63 -197
0 -28 1 -28 18 -13 22 20 36 21 51 4 8 -10 7 -17 -1 -25 -7 -7 -9 -12 -4 -12
4 0 -4 -11 -18 -24 -15 -13 -26 -25 -26 -28 0 -2 13 -14 30 -26 16 -12 27 -17
25 -10 -3 7 -1 19 4 27 8 12 13 12 36 -3 15 -10 28 -16 30 -14 1 2 10 17 19
35 14 29 55 66 96 88 11 6 10 3 -2 -12 -10 -11 -18 -21 -18 -24 0 -2 22 -2 50
-1 45 4 50 2 50 -17 0 -14 -6 -21 -19 -21 -32 0 -34 -18 -3 -34 26 -13 31 -13
45 2 16 15 17 15 17 0 0 -9 -6 -19 -12 -21 -8 -3 -6 -6 5 -6 22 -1 33 25 18
43 -20 24 12 26 80 5 35 -11 76 -19 91 -16 19 2 28 -1 31 -12 4 -21 27 20 38
67 17 75 -47 213 -129 279 -55 44 -136 83 -185 88 -23 2 -65 -2 -94 -9z"/>
<path d="M12751 6436 c-10 -12 -12 -33 -8 -76 l5 -60 -67 6 c-57 6 -69 4 -74
-10 -4 -9 -4 -16 -1 -16 3 0 38 -5 77 -11 54 -8 79 -17 100 -37 21 -20 30 -23
39 -14 9 9 6 19 -12 44 -17 24 -27 56 -35 112 -9 70 -12 77 -24 62z"/>
<path d="M7146 6431 c-17 -7 -15 -10 16 -29 19 -12 49 -25 67 -28 27 -6 31 -4
31 14 0 40 -62 63 -114 43z"/>
<path d="M7400 6367 c-13 -7 -25 -18 -28 -24 -8 -27 101 -46 111 -20 13 33
-45 63 -83 44z m42 -39 c-7 -7 -12 -8 -12 -2 0 14 12 26 19 19 2 -3 -1 -11 -7
-17z"/>
<path d="M5951 6199 c-13 -39 -19 -75 -14 -79 17 -15 175 -62 182 -54 9 11 51
122 51 135 0 5 -6 9 -14 9 -7 0 -22 -24 -33 -52 -15 -42 -23 -52 -38 -50 -33
6 -36 16 -20 61 14 41 13 61 -4 61 -4 0 -15 -22 -25 -50 -19 -54 -23 -57 -49
-37 -16 11 -17 16 -2 56 18 53 19 71 2 71 -7 0 -23 -31 -36 -71z"/>
<path d="M7255 6220 c3 -5 8 -10 11 -10 2 0 4 5 4 10 0 6 -5 10 -11 10 -5 0
-7 -4 -4 -10z"/>
<path d="M12515 6190 c-15 -17 -13 -25 32 -111 26 -52 49 -97 51 -101 2 -5 -3
-8 -10 -8 -8 0 -24 -18 -37 -40 -12 -22 -26 -42 -32 -45 -5 -4 -43 12 -83 35
-72 39 -75 40 -81 20 -4 -12 -5 -23 -3 -25 5 -5 167 -85 172 -85 6 0 76 120
76 131 0 5 4 9 9 9 16 0 21 29 9 55 -9 21 -6 29 22 65 25 32 38 41 59 38 50
-5 70 25 24 36 -16 3 -65 14 -110 25 -79 18 -83 18 -98 1z m123 -45 c5 -4 -40
-65 -48 -65 -6 0 -40 65 -40 77 0 6 81 -5 88 -12z"/>
<path d="M1396 6160 c-130 -41 -157 -241 -44 -321 45 -33 130 -33 175 -1 49
35 76 101 71 173 -4 62 -23 97 -69 131 -29 21 -94 30 -133 18z m88 -64 c44
-18 66 -52 66 -99 0 -69 -50 -127 -110 -127 -114 0 -151 180 -47 225 41 18 50
18 91 1z"/>
<path d="M7188 6144 c-12 -12 11 -32 31 -27 10 3 22 -1 27 -8 5 -9 2 -10 -10
-6 -10 4 -15 3 -11 -3 9 -14 35 -12 35 3 0 7 4 6 10 -4 6 -11 18 -15 35 -11
28 5 30 10 11 35 -15 19 -114 36 -128 21z"/>
<path d="M9833 6098 c-6 -7 -14 -24 -17 -38 -6 -21 -4 -20 15 8 21 32 22 56 2
30z"/>
<path d="M5897 6041 c-3 -15 4 -21 34 -30 44 -13 44 -13 27 -77 -13 -48 -22
-51 -79 -29 -15 6 -36 -21 -25 -32 2 -3 46 -16 96 -30 76 -20 94 -22 101 -11
14 22 11 26 -32 33 -40 7 -41 8 -36 39 3 17 10 43 16 58 10 27 11 27 50 13 35
-12 40 -12 45 2 3 8 6 16 6 18 0 4 -184 65 -194 65 -2 0 -6 -8 -9 -19z"/>
<path d="M12998 6020 c-57 -7 -112 -48 -142 -106 -16 -30 -21 -60 -23 -127 -1
-48 -4 -96 -8 -106 -6 -20 13 -71 27 -71 4 0 8 18 8 40 0 25 5 40 13 41 6 0
39 3 72 5 33 2 100 10 150 18 126 20 134 19 145 -10 6 -14 10 -36 10 -50 0
-13 5 -24 10 -24 6 0 10 5 10 10 0 6 7 10 15 10 9 0 15 9 15 25 0 14 5 25 11
25 8 0 8 4 -1 15 -6 8 -9 18 -7 22 3 5 0 39 -7 75 -29 154 -134 227 -298 208z"/>
<path d="M9773 5995 c-7 -7 -15 -26 -19 -42 -4 -15 -14 -33 -23 -40 -11 -8
-12 -12 -3 -13 7 0 12 -15 12 -39 0 -49 36 -105 71 -109 34 -4 59 49 59 124 0
49 -3 58 -30 81 -16 13 -30 31 -30 39 0 18 -21 18 -37 -1z"/>
<path d="M10313 5999 c-25 -9 -32 -39 -9 -39 8 0 20 -2 28 -3 7 -2 10 -2 6 0
-14 8 -8 25 7 20 21 -9 29 10 8 21 -10 6 -28 6 -40 1z"/>
<path d="M10210 5850 c0 -5 7 -10 15 -10 8 0 15 5 15 10 0 6 -7 10 -15 10 -8
0 -15 -4 -15 -10z"/>
<path d="M12301 5824 c-24 -31 -36 -83 -27 -119 14 -54 67 -44 114 20 18 25
39 45 47 45 24 0 18 -51 -10 -92 -31 -46 -14 -65 21 -24 51 59 52 146 3 159
-19 5 -33 -4 -75 -50 -30 -32 -57 -53 -63 -49 -18 12 -12 51 13 89 22 33 24
47 5 47 -4 0 -17 -12 -28 -26z"/>
<path d="M5848 5802 c-59 -67 -45 -158 29 -188 40 -17 88 -7 117 25 37 41 43
146 7 139 -12 -2 -15 -13 -13 -41 8 -92 -84 -128 -134 -52 -13 20 -14 30 -4
60 6 19 16 35 21 35 11 0 12 27 0 34 -4 3 -15 -2 -23 -12z"/>
<path d="M10175 5792 c-16 -1 -35 -5 -42 -7 -18 -6 37 -65 61 -65 18 0 18 1 3
18 -15 16 -14 17 16 17 21 0 32 5 32 14 0 17 -31 28 -70 23z"/>
<path d="M1250 5742 c0 -29 2 -30 68 -41 37 -7 82 -14 101 -18 l34 -6 -39 -24
c-21 -13 -76 -45 -121 -70 -59 -33 -82 -52 -86 -69 -5 -28 -15 -24 162 -60
112 -22 135 -25 142 -13 23 37 11 45 -91 64 -54 10 -98 21 -95 24 2 4 55 37
119 75 94 56 116 74 116 92 0 27 -3 28 -145 49 -60 9 -122 18 -137 21 -26 5
-28 3 -28 -24z"/>
<path d="M9957 5691 c2 -72 6 -81 41 -81 27 1 139 50 114 50 -8 0 -44 20 -81
45 -37 25 -69 45 -72 45 -2 0 -3 -27 -2 -59z"/>
<path d="M6745 5710 c3 -5 8 -10 11 -10 2 0 4 5 4 10 0 6 -5 10 -11 10 -5 0
-7 -4 -4 -10z"/>
<path d="M13108 5703 c-21 -5 -24 -39 -5 -46 16 -6 77 19 77 31 0 18 -34 25
-72 15z"/>
<path d="M12940 5683 c-8 -3 -21 -10 -28 -16 -11 -9 -11 -12 5 -18 26 -11 71
-11 78 0 3 5 -2 17 -11 25 -16 17 -20 18 -44 9z"/>
<path d="M2855 5671 c-3 -5 0 -13 5 -16 16 -10 62 4 55 15 -8 13 -52 13 -60 1z"/>
<path d="M2720 5631 c0 -9 24 -21 42 -21 6 0 6 6 -2 15 -14 16 -40 20 -40 6z"/>
<path d="M6620 5620 c0 -5 5 -10 11 -10 5 0 7 5 4 10 -3 6 -8 10 -11 10 -2 0
-4 -4 -4 -10z"/>
<path d="M5786 5593 c-12 -43 -27 -146 -22 -159 8 -22 26 -16 26 9 0 47 11 51
95 38 56 -9 80 -10 88 -2 18 18 -2 27 -87 41 l-78 13 6 39 c5 29 3 38 -8 38
-8 0 -17 -8 -20 -17z"/>
<path d="M9796 5556 c5 -22 3 -24 -18 -19 -21 5 -21 4 7 -22 18 -16 23 -25 13
-22 -26 9 -22 2 10 -19 23 -15 25 -15 13 -1 -19 24 0 21 56 -8 26 -14 54 -23
62 -20 8 3 18 0 22 -6 3 -6 12 -10 19 -7 7 2 -12 27 -44 58 -57 55 -81 71
-124 85 -20 6 -22 4 -16 -19z"/>
<path d="M10131 5541 c13 -17 31 -31 40 -31 26 0 49 -28 49 -58 1 -15 34 -91
74 -170 71 -140 72 -143 53 -157 -17 -12 -19 -18 -10 -38 6 -14 9 -43 6 -65
-4 -29 2 -57 22 -107 14 -37 24 -69 21 -72 -10 -10 -27 9 -51 56 -13 27 -30
51 -38 54 -8 3 -28 29 -45 59 -30 54 -87 118 -104 118 -5 0 -30 19 -56 43 -26
24 -60 49 -77 56 -20 8 -48 39 -82 89 -29 42 -64 91 -78 107 -20 24 -19 18 9
-30 19 -33 40 -87 46 -120 15 -73 89 -272 140 -375 20 -41 49 -107 64 -146 19
-49 47 -93 88 -140 33 -38 105 -145 161 -239 56 -93 117 -187 136 -208 19 -22
64 -82 100 -135 62 -90 115 -142 148 -142 11 0 12 9 7 38 -6 34 -58 234 -71
271 -15 43 29 -21 65 -94 48 -99 61 -138 66 -200 2 -27 8 -51 13 -52 11 -4 14
79 3 92 -9 11 -33 90 -35 115 -1 8 -9 29 -17 45 -9 17 -23 59 -32 95 -9 36
-27 87 -40 115 -41 87 -56 144 -56 214 0 65 -2 72 -40 122 -22 30 -40 63 -40
74 0 11 -5 27 -10 35 -17 26 -12 -27 5 -60 9 -17 17 -63 19 -102 3 -40 13 -98
24 -128 24 -66 28 -166 8 -173 -8 -3 -16 2 -19 14 -4 13 -14 19 -34 19 -24 1
-25 2 -10 11 9 6 26 7 37 4 14 -4 20 -2 20 9 0 8 -4 18 -10 21 -5 3 -22 32
-37 63 -14 31 -34 69 -44 83 -11 16 -16 34 -12 49 5 17 3 21 -7 15 -8 -5 -11
-4 -7 2 4 6 0 24 -9 41 -20 41 -25 122 -7 115 16 -6 16 2 2 28 -12 24 -29 16
-29 -13 0 -35 -10 -14 -19 38 -5 27 -12 58 -16 68 -6 14 -5 17 4 11 9 -5 12
-2 9 11 -2 11 -10 18 -16 16 -7 -1 -12 6 -12 15 0 10 -3 35 -6 56 -6 35 -5 38
25 48 32 11 35 18 25 57 -8 27 -18 28 -44 2 l-20 -20 0 28 c0 15 5 45 10 68
12 53 1 92 -43 146 -19 24 -53 76 -77 116 -43 73 -78 110 -132 138 l-30 15 23
-30z m234 -786 c28 -27 36 -67 10 -45 -8 7 -15 18 -15 25 0 7 -9 15 -20 18
-11 3 -20 10 -20 16 0 18 19 12 45 -14z m47 -355 c12 -11 16 -20 9 -20 -21 0
-52 20 -46 31 9 13 13 12 37 -11z m106 -18 c2 -7 -6 -12 -17 -12 -21 0 -27 11
-14 24 9 9 26 2 31 -12z m89 -127 c0 -8 -4 -15 -9 -15 -10 0 -11 14 -1 23 9
10 10 9 10 -8z"/>
<path d="M13020 5550 c0 -5 5 -10 10 -10 6 0 10 5 10 10 0 6 -4 10 -10 10 -5
0 -10 -4 -10 -10z"/>
<path d="M6575 5513 c-12 -74 -16 -85 -40 -109 -25 -25 -45 -56 -45 -71 0 -4
23 17 50 47 48 53 50 58 50 113 0 65 -6 74 -15 20z"/>
<path d="M9642 5503 c-21 -21 -24 -25 -6 -10 34 31 76 37 112 18 12 -6 22 -9
22 -7 0 9 -58 36 -75 36 -9 0 -33 -17 -53 -37z"/>
<path d="M6912 5472 c-40 -31 -69 -58 -63 -61 5 -4 4 -14 -5 -25 -7 -11 -17
-16 -21 -12 -4 4 -1 11 7 16 29 18 -20 24 -56 7 -40 -19 -101 -116 -81 -129 8
-5 13 1 15 17 4 32 22 32 22 0 0 -17 -9 -29 -31 -41 -30 -15 -31 -15 -26 1 4
10 3 14 -4 9 -14 -8 -157 -227 -183 -279 -11 -22 -49 -69 -83 -104 -35 -35
-63 -70 -63 -77 0 -34 101 -46 155 -18 27 14 117 37 200 51 27 4 30 2 30 -24
0 -15 -6 -33 -14 -39 -13 -10 -13 -14 1 -28 19 -18 38 -21 38 -6 0 6 7 10 15
10 9 0 18 6 21 14 3 8 25 19 48 25 23 6 55 20 69 31 17 14 34 19 47 15 21 -7
29 10 8 18 -10 3 -8 10 6 25 10 12 23 19 27 16 5 -3 9 3 9 14 0 24 33 62 54
62 9 0 16 5 16 10 0 15 -47 12 -53 -2 -3 -7 -6 3 -6 22 0 24 2 31 8 21 6 -8
16 -11 27 -7 16 6 16 9 -7 29 -35 31 -42 54 -18 60 27 7 24 43 -6 63 -14 9
-25 23 -25 30 0 19 19 18 26 -1 12 -29 29 -15 30 25 1 37 -1 39 -16 25 -21
-19 -34 -19 -27 -1 3 7 1 18 -4 23 -15 15 -22 113 -9 113 7 0 9 8 5 21 -5 16
-4 20 6 15 8 -4 5 -1 -5 6 -10 7 -31 23 -45 36 -19 17 -21 21 -6 14 11 -5 26
-7 33 -5 7 3 19 -1 28 -7 8 -7 17 -10 21 -6 4 3 -2 12 -11 19 -15 11 -16 18
-8 34 23 42 -21 31 -96 -25z m-107 -82 c-3 -5 -14 -10 -23 -10 -15 0 -15 2 -2
10 20 13 33 13 25 0z m-11 -48 c9 5 21 7 24 3 9 -8 -54 -65 -71 -65 -6 0 -3 8
8 16 18 14 19 16 3 25 -10 6 -15 16 -11 26 6 14 7 14 18 0 8 -11 15 -13 29 -5z
m159 -23 c22 -33 25 -59 7 -59 -8 0 -40 72 -40 92 0 14 3 11 33 -33z m-92 8
c-10 -9 -11 -8 -5 6 3 10 9 15 12 12 3 -3 0 -11 -7 -18z m-1 -37 c0 -5 -5 -10
-11 -10 -5 0 -7 5 -4 10 3 6 8 10 11 10 2 0 4 -4 4 -10z m-4 -107 c-3 -42 -6
-88 -6 -102 0 -29 -16 -59 -25 -49 -4 3 -1 15 6 27 19 29 4 37 -36 18 -20 -9
-38 -17 -40 -17 -8 0 4 65 20 110 22 63 42 90 67 90 20 0 21 -3 14 -77z m171
-65 c-3 -8 -6 -5 -6 6 -1 11 2 17 5 13 3 -3 4 -12 1 -19z m-352 -128 c-4 -12
-9 -19 -12 -17 -3 3 -2 15 2 27 4 12 9 19 12 17 3 -3 2 -15 -2 -27z m120 -25
c-15 -20 -29 -34 -32 -31 -3 2 8 20 23 40 37 46 45 37 9 -9z m-59 -32 c-10
-10 -19 5 -10 18 6 11 8 11 12 0 2 -7 1 -15 -2 -18z"/>
<path d="M6796 5181 c-8 -13 21 -34 39 -27 25 9 18 36 -9 36 -14 0 -27 -4 -30
-9z"/>
<path d="M6631 5513 c-1 -6 -4 -20 -7 -30 -5 -17 -5 -17 6 0 6 10 9 23 6 30
-3 9 -5 9 -5 0z"/>
<path d="M13042 5499 c-44 -9 -49 -16 -26 -34 27 -21 55 -18 88 9 l28 23 -28
5 c-16 2 -44 1 -62 -3z"/>
<path d="M2870 5481 c-8 -6 -29 -11 -45 -11 -23 0 -42 -11 -73 -43 -40 -41
-41 -44 -25 -58 40 -32 103 -59 156 -65 64 -8 101 10 175 82 23 24 51 46 62
49 11 4 20 12 20 19 0 9 -24 15 -77 19 -43 4 -100 9 -128 12 -28 3 -57 1 -65
-4z m170 -81 c0 -5 -9 -10 -20 -10 -11 0 -20 -4 -20 -10 0 -5 -9 -10 -20 -10
-27 0 -25 14 3 28 28 14 57 15 57 2z m-179 -51 c-16 -6 -28 -6 -35 1 -7 7 1
10 25 9 32 0 33 -1 10 -10z"/>
<path d="M12867 5362 c-61 -48 -74 -54 -110 -52 -70 3 -77 2 -128 -15 -36 -12
-53 -24 -60 -42 -8 -22 -25 -192 -26 -273 -1 -14 -6 -54 -12 -90 -14 -87 -14
-239 1 -294 11 -41 10 -49 -15 -100 -27 -55 -38 -156 -17 -156 5 0 7 7 3 16
-5 14 -3 15 14 6 11 -6 23 -8 27 -5 3 3 6 2 6 -4 0 -5 -12 -15 -26 -21 -14 -7
-23 -16 -20 -21 3 -5 45 -16 94 -26 49 -9 94 -20 101 -24 8 -5 0 -33 -29 -98
-43 -96 -46 -109 -30 -115 10 -3 7 -21 -30 -233 -31 -170 -33 -196 -18 -208
13 -10 13 -32 2 -167 -7 -85 -17 -222 -23 -305 -14 -184 -53 -482 -80 -601
-38 -172 -103 -574 -127 -793 -13 -119 -15 -166 -7 -205 7 -30 7 -55 2 -61 -5
-5 -9 -17 -9 -28 0 -11 -11 -22 -31 -29 -23 -8 -36 -23 -55 -65 -13 -31 -24
-62 -24 -69 0 -27 44 -38 150 -39 120 0 156 14 167 65 4 24 13 32 42 40 59 17
75 34 68 75 l-6 35 59 0 58 0 7 43 c3 23 17 94 31 157 57 273 100 571 129 890
27 309 45 450 91 695 25 132 47 250 51 263 22 90 28 -75 27 -713 -1 -481 -2
-515 -22 -590 -43 -169 -82 -525 -66 -614 5 -25 9 -73 9 -106 l0 -59 48 -23
c37 -18 47 -28 47 -47 0 -41 34 -56 125 -55 103 0 155 10 168 30 13 20 -27
109 -67 151 -30 32 -33 48 -8 41 26 -6 40 15 52 76 5 28 14 60 19 69 12 23 47
126 56 167 4 16 10 102 15 190 21 383 41 725 55 925 8 118 20 320 26 448 l12
233 29 6 c16 3 30 9 32 12 4 6 -78 337 -98 398 -4 12 -2 24 4 28 7 4 4 17 -9
39 -11 17 -35 63 -54 101 -19 39 -47 81 -61 94 -53 50 -20 78 78 66 71 -9 99
13 114 92 20 105 20 112 1 129 -11 10 -19 12 -19 6 0 -6 5 -14 10 -17 6 -3 10
-10 10 -16 0 -5 -18 3 -40 17 -50 33 -80 33 -152 0 -35 -16 -75 -26 -102 -26
l-46 0 0 50 c0 40 4 52 18 56 9 3 64 28 121 56 90 44 109 50 148 45 l45 -5 -5
37 c-3 20 -11 79 -17 131 -6 52 -20 127 -31 167 -10 40 -19 74 -19 77 0 4 -74
34 -166 66 -42 15 -77 37 -112 70 l-51 49 -15 -54 c-9 -29 -16 -68 -16 -87 0
-30 -45 -211 -57 -232 -3 -5 -10 -1 -15 9 -15 27 -108 265 -108 278 -1 7 -15
42 -33 78 l-32 66 -68 -55z m-113 -509 c20 -25 36 -52 36 -58 0 -7 11 -28 24
-47 l23 -35 -51 5 c-64 6 -175 71 -123 72 6 1 -3 7 -21 15 -61 26 -24 34 39 9
34 -14 63 -24 65 -22 2 2 -24 19 -56 37 -57 31 -75 51 -47 51 7 0 29 -9 50
-20 40 -22 46 -17 21 18 -29 42 4 22 40 -25z"/>
<path d="M12960 5415 c0 -2 17 -16 37 -30 50 -34 101 -34 133 0 l24 26 -38
-16 c-37 -16 -42 -15 -93 4 -58 22 -63 24 -63 16z"/>
<path d="M5838 5367 c-131 -41 -132 -52 -4 -130 51 -31 96 -57 100 -57 17 0 3
38 -18 48 -21 9 -23 15 -19 59 6 55 17 73 44 73 12 0 19 7 19 20 0 25 -4 25
-122 -13z m29 -103 c-6 -7 -77 36 -77 46 0 4 17 12 38 17 37 9 37 9 40 -25 2
-19 1 -36 -1 -38z"/>
<path d="M7019 5314 c-7 -9 -4 -16 11 -24 25 -13 40 -6 40 20 0 21 -34 24 -51
4z"/>
<path d="M7680 5296 c0 -8 4 -17 9 -20 5 -4 7 3 4 14 -6 23 -13 26 -13 6z"/>
<path d="M1184 5261 c-22 -14 -38 -36 -52 -73 -24 -64 -45 -139 -40 -144 7 -6
292 -93 296 -90 1 2 4 16 5 31 2 24 -3 29 -33 38 -19 5 -36 10 -38 11 -1 2 5
34 14 73 14 63 14 74 0 107 -11 26 -26 41 -50 51 -46 20 -65 19 -102 -4z m98
-72 c17 -23 18 -31 7 -75 -6 -27 -14 -52 -18 -56 -7 -8 -121 22 -121 32 0 19
32 96 47 112 23 25 61 19 85 -13z"/>
<path d="M9581 5204 c-1 -11 4 -47 11 -80 11 -59 31 -96 76 -146 13 -14 21
-31 18 -36 -6 -10 21 -84 34 -92 4 -3 10 -16 11 -30 3 -17 10 -25 24 -25 16 0
20 -7 21 -37 1 -21 6 -44 12 -51 7 -8 10 -16 7 -19 -3 -3 1 -11 10 -18 8 -7
15 -20 15 -29 0 -12 2 -13 9 -3 7 11 10 10 15 -3 3 -9 6 -25 6 -35 0 -9 6 -23
14 -29 12 -10 17 -8 26 9 18 33 20 21 9 -60 -10 -82 1 -114 23 -64 l12 29 4
-33 c2 -21 -3 -40 -12 -51 -15 -17 -22 -41 -11 -41 3 0 14 9 25 20 15 15 33
20 71 20 l52 0 -27 33 c-14 17 -51 75 -82 127 -30 52 -78 128 -105 167 -27 40
-49 75 -49 77 0 11 -113 182 -126 189 -21 12 -41 55 -68 149 -14 46 -25 74
-25 62z"/>
<path d="M5720 5146 c0 -8 29 -36 65 -61 36 -26 65 -48 65 -50 0 -2 -31 -21
-70 -42 -91 -50 -95 -73 -11 -73 32 0 79 -3 105 -6 42 -6 46 -5 46 15 0 19 -5
21 -66 21 -75 0 -76 9 -3 45 27 14 49 29 49 34 0 5 -22 26 -50 46 -27 20 -50
39 -50 42 0 3 29 2 65 -2 60 -6 65 -5 65 13 0 17 -10 20 -77 26 -113 9 -133 8
-133 -8z"/>
<path d="M7235 5120 c-3 -5 -2 -10 4 -10 5 0 13 5 16 10 3 6 2 10 -4 10 -5 0
-13 -4 -16 -10z"/>
<path d="M7277 5110 c-3 -11 -2 -20 3 -20 12 0 21 28 11 35 -5 2 -11 -4 -14
-15z"/>
<path d="M7050 5106 c0 -2 7 -6 15 -10 8 -3 15 -1 15 4 0 6 -7 10 -15 10 -8 0
-15 -2 -15 -4z"/>
<path d="M7375 5100 c3 -5 8 -10 11 -10 2 0 4 5 4 10 0 6 -5 10 -11 10 -5 0
-7 -4 -4 -10z"/>
<path d="M7425 5100 c-3 -5 3 -10 14 -10 12 0 21 5 21 10 0 6 -6 10 -14 10 -8
0 -18 -4 -21 -10z"/>
<path d="M7305 5089 c-4 -6 -5 -12 -2 -15 2 -3 7 2 10 11 7 17 1 20 -8 4z"/>
<path d="M7340 5081 c0 -5 6 -12 13 -15 9 -5 9 -7 -1 -12 -6 -3 -10 -10 -6
-15 3 -5 12 -2 20 6 14 13 14 17 0 30 -17 17 -26 19 -26 6z"/>
<path d="M7080 5069 c0 -5 5 -7 10 -4 6 3 10 8 10 11 0 2 -4 4 -10 4 -5 0 -10
-5 -10 -11z"/>
<path d="M7425 5056 c20 -14 35 -12 35 5 0 5 -12 9 -27 9 -26 0 -26 -1 -8 -14z"/>
<path d="M7410 5032 c0 -7 -7 -12 -15 -12 -8 0 -15 -4 -15 -10 0 -5 5 -10 11
-10 6 0 8 -7 5 -16 -3 -9 -2 -12 5 -9 5 4 17 1 26 -7 15 -12 16 -10 9 22 -6
34 -26 66 -26 42z"/>
<path d="M7156 5013 c-11 -11 -6 -23 9 -23 8 0 15 4 15 9 0 13 -16 22 -24 14z"/>
<path d="M10440 4950 c0 -5 5 -10 11 -10 5 0 7 5 4 10 -3 6 -8 10 -11 10 -2 0
-4 -4 -4 -10z"/>
<path d="M7200 4934 c0 -8 5 -12 10 -9 6 3 10 10 10 16 0 5 -4 9 -10 9 -5 0
-10 -7 -10 -16z"/>
<path d="M1105 4926 c-37 -17 -80 -62 -94 -99 -18 -47 -13 -128 9 -165 27 -44
76 -72 127 -72 54 0 81 11 116 46 61 60 77 172 34 235 -41 62 -124 85 -192 55z
m131 -80 c26 -26 34 -42 34 -70 0 -72 -47 -126 -108 -126 -66 0 -111 42 -112
103 0 75 46 127 113 127 31 0 46 -7 73 -34z"/>
<path d="M7112 4895 c-7 -8 -9 -15 -4 -15 5 0 15 7 22 15 16 19 -1 19 -18 0z"/>
<path d="M7383 4875 c-9 -25 4 -29 17 -6 7 15 7 21 0 21 -6 0 -13 -7 -17 -15z"/>
<path d="M7136 4869 c3 -6 0 -16 -7 -21 -12 -8 -11 -9 1 -5 18 4 27 37 10 37
-6 0 -8 -5 -4 -11z"/>
<path d="M15049 4804 c-199 -61 -292 -281 -200 -469 36 -73 82 -117 161 -154
l55 -26 1575 0 1575 0 55 26 c80 37 125 81 162 157 29 58 33 76 33 147 0 71
-4 89 -33 147 -37 76 -82 120 -162 157 l-55 26 -1560 2 c-1329 1 -1567 0
-1606 -13z m3197 -31 c67 -23 154 -110 177 -177 22 -63 22 -159 0 -222 -23
-67 -110 -154 -177 -177 -46 -16 -176 -17 -1606 -17 -1774 0 -1613 -8 -1711
89 -65 65 -89 124 -89 216 0 92 24 151 89 216 96 96 -65 87 1707 88 1435 1
1564 0 1610 -16z"/>
<path d="M15105 4626 c-117 -52 -128 -222 -17 -284 52 -29 134 -30 180 -2 37
23 39 31 14 53 -16 15 -21 15 -38 2 -29 -22 -96 -19 -127 5 -48 38 -44 130 7
165 27 19 86 19 114 0 19 -14 24 -14 47 1 21 14 23 19 13 32 -33 39 -134 54
-193 28z"/>
<path d="M15435 4626 c-87 -40 -123 -152 -72 -227 36 -54 82 -79 144 -79 105
0 164 51 171 149 4 62 -17 105 -70 144 -35 26 -130 33 -173 13z m146 -75 c39
-39 40 -96 3 -140 -21 -26 -33 -31 -69 -31 -78 0 -125 69 -95 141 28 66 109
81 161 30z"/>
<path d="M15995 4626 c-87 -40 -123 -152 -72 -227 36 -54 82 -79 144 -79 105
0 164 51 171 149 4 62 -17 105 -70 144 -35 26 -130 33 -173 13z m146 -75 c39
-39 40 -96 3 -140 -21 -26 -33 -31 -69 -31 -78 0 -125 69 -95 141 28 66 109
81 161 30z"/>
<path d="M16300 4481 l0 -161 35 0 c35 0 35 0 35 45 0 45 0 45 35 45 29 0 38
-6 65 -45 27 -39 36 -45 65 -45 19 0 35 3 35 6 0 3 -13 25 -30 49 l-30 44 30
29 c50 50 35 142 -27 172 -15 7 -70 15 -120 18 l-93 4 0 -161z m178 83 c12 -8
22 -26 22 -39 0 -38 -26 -55 -81 -55 l-49 0 0 55 0 55 43 0 c23 0 53 -7 65
-16z"/>
<path d="M16640 4480 l0 -162 103 4 c117 4 158 21 191 78 25 42 25 117 1 158
-32 53 -87 76 -197 80 l-98 4 0 -162z m217 66 c16 -19 23 -39 23 -71 0 -36 -5
-47 -31 -69 -25 -21 -41 -26 -85 -26 l-54 0 0 101 0 101 62 -4 c51 -4 65 -9
85 -32z"/>
<path d="M17184 4630 c-29 -12 -64 -58 -64 -85 0 -42 37 -73 111 -95 61 -19
70 -24 67 -43 -5 -34 -48 -44 -110 -24 -29 9 -53 15 -54 14 -1 -1 -5 -14 -9
-28 -6 -24 -3 -28 30 -39 54 -18 159 -9 186 15 33 31 41 61 25 100 -13 31 -22
37 -92 57 -81 24 -97 39 -70 66 18 18 83 20 116 2 17 -9 22 -7 30 15 13 34 14
31 -21 44 -37 13 -115 13 -145 1z"/>
<path d="M17430 4480 l0 -160 120 0 120 0 0 30 0 30 -85 0 -85 0 0 35 0 34 73
3 c70 3 72 4 75 31 l3 27 -75 0 -76 0 0 35 0 35 86 0 85 0 -3 28 -3 27 -117 3
-118 3 0 -161z"/>
<path d="M17697 4634 c-4 -4 -7 -18 -7 -31 0 -21 4 -23 50 -23 l50 0 0 -130 0
-130 40 0 40 0 0 130 0 130 51 0 c49 0 50 1 47 28 l-3 27 -131 3 c-71 1 -133
-1 -137 -4z"/>
<path d="M18054 4630 c-30 -12 -64 -58 -64 -88 0 -40 37 -70 112 -93 60 -18
69 -23 66 -42 -5 -34 -48 -44 -110 -24 -29 9 -53 15 -54 14 -1 -1 -5 -14 -9
-28 -6 -24 -3 -28 30 -39 54 -18 159 -9 186 15 33 31 41 61 25 100 -13 31 -22
37 -92 57 -81 24 -97 39 -70 66 18 18 83 20 116 2 17 -9 22 -7 30 15 13 34 14
31 -21 44 -37 13 -115 13 -145 1z"/>
<path d="M15720 4445 c0 -24 2 -25 65 -25 63 0 65 1 65 25 0 24 -2 25 -65 25
-63 0 -65 -1 -65 -25z"/>
<path d="M6926 4801 c-11 -17 6 -41 28 -41 17 0 19 2 6 11 -11 8 -12 12 -2 16
6 2 12 9 12 14 0 12 -37 12 -44 0z"/>
<path d="M13540 4729 c14 -6 38 -17 53 -25 27 -13 28 -13 25 9 -3 19 -10 22
-53 24 -43 2 -47 1 -25 -8z"/>
<path d="M13600 4663 c0 -5 9 -18 20 -28 11 -10 20 -16 20 -13 0 3 -9 15 -20
28 -11 13 -20 19 -20 13z"/>
<path d="M13565 4640 c3 -5 11 -10 16 -10 6 0 7 5 4 10 -3 6 -11 10 -16 10 -6
0 -7 -4 -4 -10z"/>
<path d="M6760 4590 c-7 -4 2 -10 20 -14 32 -6 50 -1 50 13 0 10 -55 10 -70 1z"/>
<path d="M7005 4590 c3 -5 8 -10 11 -10 2 0 4 5 4 10 0 6 -5 10 -11 10 -5 0
-7 -4 -4 -10z"/>
<path d="M916 4574 c-11 -29 -6 -35 49 -59 30 -14 55 -27 55 -30 0 -21 -66
-145 -77 -145 -7 0 -31 9 -53 20 -50 25 -54 25 -68 -4 -10 -23 -7 -25 130 -90
77 -37 141 -66 143 -64 8 10 26 50 23 53 -2 2 -29 15 -60 29 -32 13 -58 27
-58 29 0 3 16 39 35 80 l34 76 62 -25 c34 -14 63 -24 64 -22 2 2 6 15 10 29 6
25 2 27 -132 83 -76 31 -141 56 -144 56 -4 0 -10 -7 -13 -16z"/>
<path d="M6915 4581 c-3 -6 3 -15 14 -20 16 -9 18 -8 14 9 -6 21 -18 26 -28
11z"/>
<path d="M7040 4558 c0 -16 4 -28 9 -28 18 0 20 17 6 36 -14 18 -14 18 -15 -8z"/>
<path d="M7340 4576 c0 -2 7 -7 16 -10 8 -3 12 -2 9 4 -6 10 -25 14 -25 6z"/>
<path d="M6732 4561 c4 -13 18 -16 19 -4 0 4 -5 9 -11 12 -7 2 -11 -2 -8 -8z"/>
<path d="M7010 4555 c0 -8 4 -15 10 -15 5 0 7 7 4 15 -4 8 -8 15 -10 15 -2 0
-4 -7 -4 -15z"/>
<path d="M6770 4546 c0 -23 11 -46 23 -46 7 0 7 4 -1 12 -17 17 -15 33 2 19
10 -9 16 -9 21 -1 8 14 7 16 -22 24 -17 5 -23 3 -23 -8z"/>
<path d="M7120 4550 c-12 -9 -12 -10 5 -8 11 1 26 -1 34 -6 9 -6 12 -5 9 5 -6
18 -29 22 -48 9z"/>
<path d="M6726 4514 c-9 -24 -7 -28 9 -14 17 14 20 30 6 30 -5 0 -12 -7 -15
-16z"/>
<path d="M7120 4470 c0 -5 5 -10 11 -10 5 0 7 -4 4 -10 -3 -5 1 -10 9 -10 14
0 14 3 4 20 -14 21 -28 27 -28 10z"/>
<path d="M6950 4459 c0 -5 5 -7 10 -4 6 3 10 8 10 11 0 2 -4 4 -10 4 -5 0 -10
-5 -10 -11z"/>
<path d="M6989 4441 c-15 -5 -15 -8 -3 -19 12 -11 15 -10 20 3 8 20 3 24 -17
16z"/>
<path d="M6842 4418 c2 -6 10 -14 16 -16 7 -2 10 2 6 12 -7 18 -28 22 -22 4z"/>
<path d="M7022 4381 c7 -11 16 -17 20 -14 10 5 -10 33 -23 33 -5 0 -4 -9 3
-19z"/>
<path d="M6916 4375 c-3 -8 -1 -15 4 -15 13 0 22 18 11 24 -5 3 -11 -1 -15 -9z"/>
<path d="M10065 4380 c4 -6 -13 -10 -42 -11 -26 0 -57 -4 -67 -8 -18 -7 -18
-8 -2 -14 14 -6 16 -10 7 -21 -9 -11 -8 -15 5 -20 13 -5 15 -9 6 -18 -15 -15
-16 -48 -2 -48 23 0 7 -18 -22 -26 -31 -8 -30 -8 20 -12 56 -3 63 -11 33 -41
-34 -34 -55 -223 -53 -479 1 -210 21 -485 42 -576 10 -46 5 -64 -6 -20 -4 16
-11 32 -16 35 -4 3 -10 19 -12 37 -2 17 -8 37 -14 44 -6 7 -13 31 -17 53 -10
56 -24 78 -25 40 0 -16 -3 -59 -6 -95 -6 -67 13 -240 26 -240 4 0 11 -11 14
-24 3 -13 9 -32 13 -43 6 -16 5 -16 -10 -5 -15 12 -15 11 -7 -18 19 -67 72
-130 109 -131 26 0 26 0 3 -9 -34 -14 -101 -71 -107 -92 -4 -10 -13 -18 -22
-18 -13 0 -13 3 -3 15 11 13 10 14 -4 9 -10 -4 -15 -13 -12 -21 9 -22 -19 -45
-48 -37 -15 3 -34 -1 -50 -11 -32 -21 -60 -13 -53 15 3 11 1 20 -4 20 -5 0 -9
-5 -9 -11 0 -5 -5 -7 -12 -3 -7 5 -9 2 -5 -9 3 -8 0 -20 -6 -25 -23 -18 -113
-41 -136 -35 l-23 6 23 13 c26 15 7 18 -26 5 -11 -5 -24 -5 -30 -1 -5 5 -27
11 -47 15 -32 6 -39 4 -44 -11 -17 -54 -18 -55 -31 -29 -6 14 -7 23 -2 19 5
-3 9 0 9 5 0 6 -3 11 -7 11 -11 0 -40 -20 -30 -20 18 0 -37 -41 -64 -47 -16
-3 -32 -10 -35 -14 -7 -12 -61 -12 -68 0 -3 5 3 20 14 34 11 14 20 28 20 30 0
3 -21 9 -47 12 -27 3 -57 11 -68 17 -25 14 -144 11 -163 -4 -23 -20 -46 -72
-33 -76 13 -4 15 -32 2 -32 -18 0 -21 -33 -4 -46 17 -13 17 -15 1 -25 -20 -11
-25 -49 -7 -49 16 0 3 -108 -17 -138 -9 -13 -13 -31 -10 -39 4 -9 1 -22 -5
-29 -6 -8 -9 -27 -5 -44 3 -17 1 -30 -4 -30 -6 0 -10 -11 -10 -25 0 -14 4 -25
10 -25 5 0 7 -13 4 -30 -4 -18 -2 -30 4 -30 5 0 8 -9 5 -20 -3 -11 -1 -20 4
-20 5 0 10 -13 10 -29 0 -32 34 -104 65 -138 30 -32 82 -47 118 -35 66 23 99
87 115 218 7 53 82 217 100 218 5 1 42 -55 80 -123 73 -127 104 -158 149 -148
11 3 75 26 141 52 66 26 156 60 200 75 44 16 116 42 160 59 44 17 85 31 91 31
9 0 11 -74 8 -278 -5 -307 -5 -313 -16 -306 -4 3 -8 1 -8 -5 0 -5 -3 -18 -6
-28 -6 -16 -5 -16 10 2 16 19 16 18 1 -19 -8 -21 -15 -40 -15 -43 0 -2 -4 -2
-9 1 -11 7 -20 -70 -31 -269 -15 -256 -19 -231 43 -245 28 -6 86 -13 127 -16
90 -5 128 -12 155 -30 60 -38 284 -66 364 -44 50 13 91 50 91 81 0 12 -15 45
-34 73 -33 50 -37 53 -124 79 -49 14 -99 35 -111 45 -22 17 -23 20 -11 114 6
52 20 124 30 159 13 40 22 108 25 179 3 63 8 153 10 199 4 69 3 82 -9 78 -11
-5 -13 0 -6 23 5 16 11 33 14 39 3 5 19 62 35 127 26 105 41 190 69 382 4 29
12 53 17 53 6 0 48 -5 94 -12 73 -10 88 -9 118 5 21 10 31 21 27 28 -4 7 -3 8
4 4 14 -8 55 12 47 23 -2 5 3 8 13 7 9 0 16 5 14 12 -1 8 2 10 8 7 11 -7 164
87 177 108 7 12 -3 6 -62 -33 -65 -43 -72 -45 -30 -7 22 20 51 41 65 47 86 41
91 44 85 59 -13 32 -43 159 -50 207 -17 126 -60 285 -96 354 -11 19 -19 42
-19 51 0 10 -15 57 -34 105 -19 49 -40 115 -47 147 -12 58 -13 58 -43 51 -17
-3 -35 -9 -39 -13 -4 -4 1 -36 12 -72 11 -35 24 -93 30 -129 6 -36 20 -126 33
-200 27 -169 20 -211 -47 -266 -24 -19 -51 -36 -61 -39 -11 -2 -26 -6 -35 -10
-23 -9 -47 18 -59 68 -5 23 -16 65 -24 92 -15 51 -21 179 -20 389 1 96 4 122
16 129 21 14 5 93 -24 124 -22 24 -45 32 -32 11 4 -7 3 -8 -5 -4 -6 4 -9 11
-6 15 2 5 -12 17 -33 27 -70 35 -143 97 -164 138 -11 23 -88 108 -177 196 -86
85 -189 194 -229 243 -40 48 -75 87 -78 87 -3 0 -2 -4 1 -10z m1010 -1500 c-3
-5 -10 -10 -16 -10 -5 0 -9 5 -9 10 0 6 7 10 16 10 8 0 12 -4 9 -10z m-76 -85
l0 -20 -9 20 c-5 11 -9 27 -9 35 -1 13 0 13 9 0 5 -8 9 -24 9 -35z m-945 -125
c15 -31 9 -39 -12 -18 -11 11 -17 48 -8 48 3 0 11 -13 20 -30z m506 -299 c-20
-40 -38 -59 -21 -23 4 9 14 32 22 50 7 18 15 29 17 23 2 -5 -6 -28 -18 -50z"/>
<path d="M9910 4309 c0 -5 5 -7 10 -4 6 3 10 8 10 11 0 2 -4 4 -10 4 -5 0 -10
-5 -10 -11z"/>
<path d="M6842 4288 c-18 -18 -14 -28 8 -28 11 0 20 6 20 14 0 21 -15 27 -28
14z"/>
<path d="M6973 4283 c-24 -4 -31 -27 -13 -38 6 -3 10 2 10 11 0 14 3 15 12 6
18 -18 28 -15 28 8 0 11 -3 19 -7 19 -5 -1 -18 -4 -30 -6z"/>
<path d="M7486 4263 c10 -7 25 -12 33 -12 13 1 12 2 -1 6 -10 2 -18 8 -18 12
0 4 -7 8 -16 8 -14 0 -14 -2 2 -14z"/>
<path d="M7363 4252 c1 -14 5 -18 11 -12 7 7 6 14 -1 21 -9 9 -12 7 -10 -9z"/>
<path d="M750 4208 c-60 -83 -63 -150 -8 -191 39 -29 73 -16 140 54 60 62 67
66 86 47 27 -27 -2 -100 -56 -144 -27 -22 -26 -54 2 -54 22 0 77 59 97 105 28
61 25 101 -11 137 -41 41 -69 33 -148 -45 -52 -52 -65 -60 -80 -50 -27 17 -19
69 18 114 32 40 34 69 5 69 -8 0 -28 -19 -45 -42z"/>
<path d="M7050 4230 c0 -5 5 -10 11 -10 5 0 7 5 4 10 -3 6 -8 10 -11 10 -2 0
-4 -4 -4 -10z"/>
<path d="M7290 4222 c0 -6 -8 -13 -17 -15 -16 -4 -16 -5 -1 -6 18 -1 34 16 24
26 -3 4 -6 1 -6 -5z"/>
<path d="M7494 4214 c-19 -15 -19 -15 1 -6 11 5 26 7 34 4 8 -3 11 0 7 7 -10
15 -19 14 -42 -5z"/>
<path d="M7040 4185 c0 -8 4 -15 10 -15 5 0 7 7 4 15 -4 8 -8 15 -10 15 -2 0
-4 -7 -4 -15z"/>
<path d="M7394 4165 c-17 -13 -17 -14 -1 -15 18 0 25 -20 7 -20 -5 0 -10 -4
-10 -10 0 -14 13 -13 32 3 12 10 13 16 3 34 -11 20 -14 21 -31 8z"/>
<path d="M9306 4103 c-3 -21 -6 -57 -6 -79 l0 -41 46 -7 c26 -3 70 -6 99 -6
62 0 65 4 65 97 0 47 -3 64 -12 61 -8 -3 -14 -27 -16 -61 -3 -56 -4 -57 -32
-57 -30 0 -30 1 -30 55 0 42 -3 55 -15 55 -11 0 -15 -12 -15 -49 0 -55 -6 -63
-39 -54 -21 5 -22 9 -16 64 6 48 4 59 -8 59 -9 0 -17 -14 -21 -37z"/>
<path d="M7321 4077 c9 -7 14 -17 12 -24 -6 -17 14 -25 21 -8 6 16 -18 45 -37
45 -7 -1 -5 -6 4 -13z"/>
<path d="M7500 4064 c0 -10 -6 -14 -15 -11 -8 4 -17 1 -21 -5 -5 -7 -3 -8 5
-3 9 5 12 0 9 -16 -2 -19 2 -24 20 -25 23 -1 30 10 12 21 -5 3 -10 11 -10 16
0 6 4 8 9 5 5 -4 7 3 4 14 -6 24 -13 26 -13 4z"/>
<path d="M7372 4047 c-15 -17 0 -39 22 -31 18 7 18 35 0 41 -6 2 -16 -2 -22
-10z"/>
<path d="M6585 4020 c-3 -5 -2 -10 4 -10 5 0 13 5 16 10 3 6 2 10 -4 10 -5 0
-13 -4 -16 -10z"/>
<path d="M7370 3982 c0 -12 14 -27 28 -29 17 -4 15 0 -8 20 -11 9 -20 13 -20
9z"/>
<path d="M7155 3970 c3 -5 8 -10 11 -10 2 0 4 5 4 10 0 6 -5 10 -11 10 -5 0
-7 -4 -4 -10z"/>
<path d="M7230 3969 c0 -5 -4 -7 -10 -4 -5 3 -10 4 -10 1 0 -3 9 -10 19 -15
16 -9 18 -8 14 9 -6 21 -13 27 -13 9z"/>
<path d="M7430 3958 c-24 -26 -27 -53 -4 -44 9 3 18 6 21 6 3 0 -1 7 -8 16
-12 15 -11 16 8 10 18 -6 20 -4 16 14 -7 25 -8 25 -33 -2z"/>
<path d="M9907 3954 c-4 -4 -7 -31 -7 -59 0 -29 -4 -74 -9 -101 -12 -64 0
-176 21 -197 14 -15 16 -12 13 41 -2 31 -3 70 -4 85 -1 18 -5 26 -12 21 -7 -4
-7 1 1 16 26 48 23 220 -3 194z"/>
<path d="M6550 3925 c0 -27 1 -28 23 -19 18 7 10 44 -9 44 -8 0 -14 -10 -14
-25z"/>
<path d="M7150 3939 c0 -5 5 -7 10 -4 6 3 10 8 10 11 0 2 -4 4 -10 4 -5 0 -10
-5 -10 -11z"/>
<path d="M9290 3931 c0 -13 23 -30 82 -58 l82 -41 -82 -37 c-68 -32 -82 -42
-82 -61 0 -23 3 -22 103 27 137 67 137 74 8 139 -55 27 -103 50 -106 50 -3 0
-5 -8 -5 -19z"/>
<path d="M7574 3914 c3 -8 2 -12 -4 -9 -5 3 -8 -3 -7 -14 1 -18 2 -18 23 -3
17 13 19 19 8 29 -17 18 -27 16 -20 -3z"/>
<path d="M7163 3901 c0 -11 4 -18 8 -15 4 2 11 0 14 -6 5 -8 11 -7 21 1 16 13
19 44 4 34 -6 -4 -8 -11 -5 -16 10 -15 -12 -10 -29 6 -13 14 -15 13 -13 -4z"/>
<path d="M7210 3850 c-13 -8 -12 -10 3 -10 9 0 17 5 17 10 0 12 -1 12 -20 0z"/>
<path d="M7511 3844 c9 -11 9 -14 -1 -14 -8 0 -10 -3 -7 -6 4 -4 13 -2 20 4 8
7 18 8 22 4 5 -4 5 -2 2 4 -4 7 -16 14 -27 17 -17 4 -19 3 -9 -9z"/>
<path d="M6809 3827 c6 -8 7 -18 3 -22 -4 -5 -1 -5 6 -1 18 10 15 36 -4 36
-13 0 -14 -3 -5 -13z"/>
<path d="M7602 3823 c-16 -17 -9 -43 13 -43 16 0 18 14 7 41 -6 15 -9 15 -20
2z"/>
<path d="M14929 3821 c-20 -16 -22 -22 -11 -33 10 -10 16 -10 32 0 41 25 100
10 100 -26 0 -8 -31 -47 -70 -86 -38 -40 -70 -78 -70 -84 0 -8 29 -12 95 -12
88 0 95 1 95 20 0 18 -7 20 -60 20 l-61 0 56 54 c45 45 55 60 55 88 0 18 -4
38 -8 44 -24 37 -115 46 -153 15z"/>
<path d="M15168 3811 c-31 -28 -33 -33 -33 -101 0 -68 2 -73 33 -101 22 -20
43 -29 67 -29 24 0 45 9 67 29 31 28 33 33 33 101 0 68 -2 73 -33 101 -22 20
-43 29 -67 29 -24 0 -45 -9 -67 -29z m104 -28 c39 -45 28 -148 -17 -159 -13
-3 -33 -3 -44 1 -41 13 -52 123 -15 160 21 20 57 19 76 -2z"/>
<path d="M15404 3830 c-29 -11 -39 -29 -25 -43 9 -9 16 -8 31 1 41 25 100 10
100 -26 0 -8 -31 -47 -70 -86 -38 -40 -70 -78 -70 -84 0 -8 29 -12 95 -12 88
0 95 1 95 20 0 18 -7 20 -60 20 l-61 0 56 54 c45 45 55 60 55 88 0 18 -4 38
-8 44 -20 31 -91 43 -138 24z"/>
<path d="M15658 3824 c-37 -20 -58 -63 -58 -119 0 -85 37 -125 116 -125 75 0
111 84 58 137 -21 21 -32 24 -62 20 -20 -3 -45 -8 -56 -13 -16 -6 -17 -4 -11
17 14 44 35 59 85 59 32 0 50 5 53 14 11 29 -78 36 -125 10z m90 -136 c20 -20
14 -46 -14 -65 -24 -15 -29 -15 -53 -2 -50 28 -35 79 23 79 18 0 37 -5 44 -12z"/>
<path d="M15989 3817 c-46 -31 -61 -62 -56 -120 3 -38 11 -56 36 -80 29 -29
37 -32 96 -32 48 0 69 4 82 17 14 14 15 20 5 30 -10 10 -17 10 -32 0 -32 -20
-86 -15 -117 12 -22 19 -28 32 -28 66 0 34 6 47 28 66 33 28 97 33 117 9 10
-12 16 -13 26 -4 21 17 17 27 -16 44 -43 22 -101 19 -141 -8z"/>
<path d="M16260 3818 c-42 -28 -60 -61 -60 -108 0 -47 18 -80 60 -108 29 -20
44 -23 89 -19 47 3 59 9 88 40 28 31 33 44 33 87 0 43 -5 56 -33 87 -29 31
-41 37 -88 40 -45 4 -60 1 -89 -19z m141 -47 c37 -37 38 -79 3 -120 -21 -25
-34 -31 -64 -31 -58 0 -95 35 -95 90 0 84 95 121 156 61z"/>
<path d="M16530 3710 l0 -130 90 0 c83 0 90 1 90 20 0 18 -7 20 -70 20 l-70 0
0 110 c0 103 -1 110 -20 110 -19 0 -20 -7 -20 -130z"/>
<path d="M16750 3710 l0 -130 90 0 c83 0 90 1 90 20 0 18 -7 20 -70 20 l-70 0
0 110 c0 103 -1 110 -20 110 -19 0 -20 -7 -20 -130z"/>
<path d="M16970 3710 l0 -130 95 0 c88 0 95 1 95 20 0 18 -7 20 -75 20 l-75 0
0 35 0 34 62 3 c50 2 63 6 66 21 3 15 -5 17 -62 17 l-66 0 0 35 0 35 70 0 c63
0 70 2 70 20 0 19 -7 20 -90 20 l-90 0 0 -130z"/>
<path d="M17259 3817 c-46 -31 -61 -62 -56 -120 3 -38 11 -56 36 -80 29 -29
37 -32 96 -32 48 0 69 4 82 17 14 14 15 20 5 30 -10 10 -17 10 -32 0 -32 -20
-86 -15 -117 12 -22 19 -28 32 -28 66 0 34 6 47 28 66 33 28 97 33 117 9 10
-12 16 -13 26 -4 21 17 17 27 -16 44 -43 22 -101 19 -141 -8z"/>
<path d="M17450 3820 c0 -17 7 -20 45 -20 l45 0 0 -110 c0 -103 1 -110 20
-110 19 0 20 7 20 110 l0 110 45 0 c38 0 45 3 45 20 0 19 -7 20 -110 20 -103
0 -110 -1 -110 -20z"/>
<path d="M17710 3710 c0 -123 1 -130 20 -130 19 0 20 7 20 130 0 123 -1 130
-20 130 -19 0 -20 -7 -20 -130z"/>
<path d="M17870 3818 c-42 -28 -60 -61 -60 -108 0 -47 18 -80 60 -108 29 -20
44 -23 89 -19 47 3 59 9 88 40 28 31 33 44 33 87 0 43 -5 56 -33 87 -29 31
-41 37 -88 40 -45 4 -60 1 -89 -19z m141 -47 c37 -37 38 -79 3 -120 -21 -25
-34 -31 -64 -31 -58 0 -95 35 -95 90 0 84 95 121 156 61z"/>
<path d="M18140 3710 c0 -122 1 -130 20 -130 17 0 19 8 22 87 l3 88 70 -87
c99 -123 105 -120 105 42 0 122 -1 130 -20 130 -17 0 -19 -8 -22 -87 l-3 -88
-70 87 c-99 123 -105 120 -105 -42z"/>
<path d="M6936 3805 c-3 -8 -1 -15 4 -15 6 0 10 7 10 15 0 8 -2 15 -4 15 -2 0
-6 -7 -10 -15z"/>
<path d="M7114 3798 c-4 -7 -4 -10 1 -6 4 4 14 3 22 -4 11 -8 12 -7 7 6 -7 19
-20 21 -30 4z"/>
<path d="M6716 3773 c-6 -14 -5 -15 5 -6 7 7 10 15 7 18 -3 3 -9 -2 -12 -12z"/>
<path d="M6818 3773 c7 -3 16 -2 19 1 4 3 -2 6 -13 5 -11 0 -14 -3 -6 -6z"/>
<path d="M7660 3759 c0 -5 5 -7 10 -4 6 3 10 8 10 11 0 2 -4 4 -10 4 -5 0 -10
-5 -10 -11z"/>
<path d="M7561 3716 c-7 -8 -8 -17 -3 -20 6 -3 12 3 15 14 6 24 4 25 -12 6z"/>
<path d="M6648 3713 c7 -3 16 -2 19 1 4 3 -2 6 -13 5 -11 0 -14 -3 -6 -6z"/>
<path d="M6743 3704 c-19 -19 -16 -41 6 -47 15 -4 17 1 15 26 -5 37 -6 38 -21
21z"/>
<path d="M10935 3691 c5 -22 2 -32 -11 -39 -16 -9 -16 -11 0 -33 9 -13 16 -18
16 -10 0 7 6 11 13 8 14 -5 67 30 67 44 0 6 -4 8 -8 5 -5 -3 -23 8 -41 24 -40
37 -44 37 -36 1z"/>
<path d="M9364 3700 c-40 -16 -64 -59 -64 -112 0 -43 4 -54 34 -84 55 -55 125
-43 161 26 31 60 6 142 -51 166 -38 16 -50 16 -80 4z m88 -60 c25 -26 29 -36
24 -63 -13 -66 -87 -90 -125 -41 -28 36 -27 79 4 109 32 33 60 31 97 -5z"/>
<path d="M10857 3669 c4 -13 8 -18 11 -10 2 7 -1 18 -6 23 -8 8 -9 4 -5 -13z"/>
<path d="M7200 3646 c0 -7 7 -13 15 -13 8 0 15 4 15 8 0 4 -7 9 -15 13 -9 3
-15 0 -15 -8z"/>
<path d="M6800 3630 c0 -5 5 -10 11 -10 5 0 7 5 4 10 -3 6 -8 10 -11 10 -2 0
-4 -4 -4 -10z"/>
<path d="M7180 3625 c0 -15 18 -40 24 -34 3 3 -1 14 -9 25 -8 10 -14 15 -15 9z"/>
<path d="M7825 3570 c3 -5 8 -10 11 -10 2 0 4 5 4 10 0 6 -5 10 -11 10 -5 0
-7 -4 -4 -10z"/>
<path d="M6530 3551 c0 -5 9 -7 20 -4 11 3 20 7 20 9 0 2 -9 4 -20 4 -11 0
-20 -4 -20 -9z"/>
<path d="M7058 3513 c7 -3 16 -2 19 1 4 3 -2 6 -13 5 -11 0 -14 -3 -6 -6z"/>
<path d="M9911 3433 c-1 -43 3 -73 9 -73 12 0 12 97 0 125 -6 14 -9 -3 -9 -52z"/>
<path d="M7756 3474 c-9 -23 -8 -24 12 -24 24 0 32 8 25 26 -7 19 -29 18 -37
-2z"/>
<path d="M7082 3460 c14 -22 24 -25 32 -11 3 4 -6 13 -19 19 -23 11 -24 10
-13 -8z"/>
<path d="M6972 3451 c-11 -7 -11 -9 2 -14 10 -4 16 -1 16 8 0 17 -1 17 -18 6z"/>
<path d="M7580 3440 c0 -5 5 -10 11 -10 5 0 7 5 4 10 -3 6 -8 10 -11 10 -2 0
-4 -4 -4 -10z"/>
<path d="M9420 3423 c-52 -6 -96 -12 -97 -12 -2 -1 -3 -8 -3 -17 0 -9 27 -27
68 -46 37 -17 69 -33 71 -35 3 -2 -21 -29 -52 -61 -86 -87 -79 -94 59 -66 86
17 97 23 85 42 -6 10 -18 10 -52 3 -72 -17 -76 -13 -31 32 23 23 42 48 42 54
0 6 -26 22 -57 36 -62 27 -60 30 23 44 40 6 50 11 45 23 -5 13 -19 13 -101 3z"/>
<path d="M7939 3393 c-9 -2 -21 -15 -27 -28 -7 -14 -16 -25 -21 -25 -5 0 -11
-7 -15 -15 -4 -12 -2 -13 14 -2 11 6 20 15 20 19 0 5 11 8 25 8 14 0 29 8 35
19 17 32 12 36 -31 24z"/>
<path d="M7526 3370 c-15 -5 -16 -9 -7 -14 7 -5 18 -3 24 3 14 14 6 20 -17 11z"/>
<path d="M7843 3373 c-7 -2 -13 -9 -13 -14 0 -14 34 -11 56 6 18 14 18 14 -6
14 -14 0 -31 -3 -37 -6z"/>
<path d="M6894 3340 c0 -15 5 -19 21 -14 27 8 28 11 20 24 -6 9 -10 9 -16 -1
-6 -10 -9 -11 -9 -1 0 6 -4 12 -8 12 -4 0 -8 -9 -8 -20z"/>
<path d="M7012 3345 c-7 -8 -8 -15 -3 -15 5 0 17 -7 25 -16 15 -14 17 -14 22
0 6 15 -11 46 -25 46 -3 -1 -12 -7 -19 -15z"/>
<path d="M7580 3340 c0 -6 12 -10 27 -10 29 0 24 12 -7 17 -11 2 -20 -2 -20
-7z"/>
<path d="M7110 3316 c0 -2 7 -9 15 -16 13 -11 14 -10 9 4 -5 14 -24 23 -24 12z"/>
<path d="M14940 3170 l0 -130 90 0 c83 0 90 1 90 20 0 18 -7 20 -70 20 l-70 0
0 110 c0 103 -1 110 -20 110 -19 0 -20 -7 -20 -130z"/>
<path d="M15160 3170 c0 -123 1 -130 20 -130 19 0 20 7 20 130 0 123 -1 130
-20 130 -19 0 -20 -7 -20 -130z"/>
<path d="M15254 3268 c94 -221 98 -228 121 -228 19 0 29 16 65 98 79 182 73
162 47 162 -19 0 -29 -14 -61 -92 -22 -51 -42 -96 -45 -100 -4 -4 -26 37 -50
92 -38 87 -47 100 -67 100 -24 0 -24 -1 -10 -32z"/>
<path d="M15540 3170 l0 -130 95 0 c88 0 95 1 95 20 0 18 -7 20 -75 20 l-75 0
0 35 0 34 62 3 c50 2 63 6 66 21 3 15 -5 17 -62 17 l-66 0 0 35 0 35 70 0 c63
0 70 2 70 20 0 19 -7 20 -90 20 l-90 0 0 -130z"/>
<path d="M7448 3263 c7 -3 16 -2 19 1 4 3 -2 6 -13 5 -11 0 -14 -3 -6 -6z"/>
<path d="M7083 3244 c-51 -22 -41 -36 20 -28 52 6 90 24 51 24 -11 0 -24 4
-29 9 -6 5 -24 3 -42 -5z"/>
<path d="M7180 3240 c0 -5 11 -10 25 -10 14 0 25 5 25 10 0 6 -11 10 -25 10
-14 0 -25 -4 -25 -10z"/>
<path d="M6730 3228 c0 -4 6 -8 14 -8 8 0 17 4 20 8 2 4 -4 8 -15 8 -10 0 -19
-4 -19 -8z"/>
<path d="M4497 2410 c-3 -8 -8 -109 -11 -225 -3 -115 -8 -235 -12 -265 l-7
-55 42 40 c75 71 85 95 77 185 -4 52 -16 102 -37 151 -16 41 -34 99 -38 129
-4 30 -11 48 -14 40z"/>
<path d="M7344 2294 c3 -7 3 -27 -1 -45 -7 -33 -7 -33 -14 -9 -5 18 -7 11 -6
-22 1 -27 6 -48 11 -48 10 0 2 -363 -14 -643 -6 -96 -7 -192 -2 -217 4 -25 4
-67 -1 -95 -6 -32 -5 -77 1 -125 20 -137 25 -223 12 -215 -9 5 -10 1 -6 -13 4
-13 1 -22 -9 -26 -11 -4 -15 -21 -15 -69 l0 -63 50 -29 c47 -28 50 -31 50 -71
0 -42 12 -59 60 -85 41 -21 252 -9 287 16 22 17 19 88 -6 124 -10 14 -21 38
-25 53 -4 19 -15 30 -34 34 -52 11 -62 15 -62 25 0 5 9 9 20 9 25 0 25 14 2
48 -59 86 -64 140 -35 426 4 43 3 57 -6 52 -14 -9 -14 -4 3 41 13 35 42 235
65 443 34 312 43 379 51 415 5 24 5 44 -1 50 -6 5 -9 3 -9 -8 0 -15 -12 -17
-94 -17 -122 0 -235 23 -259 53 -10 12 -16 17 -13 11z"/>
<path d="M1613 2274 c-3 -10 -11 -22 -17 -26 -7 -5 -5 -8 5 -8 9 0 19 10 22
22 8 28 0 37 -10 12z"/>
<path d="M6324 2170 c-18 -7 -22 -24 -38 -176 -9 -93 -21 -194 -26 -224 -10
-61 -27 -209 -42 -375 -5 -60 -13 -234 -18 -385 -4 -151 -14 -304 -21 -340 -7
-36 -13 -90 -14 -122 0 -32 -3 -51 -8 -45 -5 7 -6 0 -3 -16 5 -19 3 -26 -6
-25 -9 2 -14 -13 -16 -49 -3 -50 -2 -52 35 -77 33 -23 48 -26 125 -26 104 0
183 15 208 40 17 17 18 23 4 82 -8 35 -18 74 -24 88 -5 14 -12 52 -15 85 -4
32 -8 62 -10 65 -2 3 -6 37 -9 75 -5 52 -1 99 15 182 20 103 21 119 9 183 -12
61 -11 72 2 87 33 38 76 131 87 188 75 400 113 582 145 685 l13 45 -126 1
c-142 0 -245 22 -235 49 7 17 -1 18 -32 5z"/>
<path d="M1553 2093 c-14 -5 -18 -39 -5 -47 4 -3 13 8 19 25 11 29 9 32 -14
22z"/>
<path d="M1407 2051 c-44 -50 -47 -91 -12 -157 14 -26 25 -52 25 -58 0 -19 46
-70 57 -63 6 4 13 25 17 47 3 22 18 75 32 117 22 65 24 80 13 100 -13 25 -24
29 -34 13 -9 -15 -38 -12 -32 3 7 19 -49 18 -66 -2z"/>
<path d="M1314 748 c3 -10 1 -20 -4 -23 -4 -3 -11 -23 -15 -46 -4 -22 -13 -53
-21 -67 -8 -15 -14 -34 -14 -43 0 -8 -7 -24 -15 -35 -8 -10 -15 -27 -15 -37 0
-28 -31 -120 -46 -138 -8 -8 -14 -28 -14 -43 0 -15 -9 -39 -20 -53 -11 -14
-20 -36 -20 -48 0 -12 -7 -28 -15 -35 -8 -7 -15 -21 -15 -31 0 -9 -6 -24 -12
-31 -21 -22 -55 -93 -50 -106 3 -9 80 -12 329 -12 l326 0 -7 94 c-12 174 -53
263 -212 466 -133 170 -167 209 -160 188z"/>
<path d="M3980 594 c-231 -161 -292 -211 -325 -267 -13 -23 -40 -102 -60 -176
-19 -73 -38 -137 -41 -142 -3 -5 161 -9 387 -9 l391 0 -6 23 c-11 36 -36 157
-45 219 -5 32 -19 88 -30 125 -23 79 -61 283 -61 331 0 17 -3 32 -7 32 -5 0
-96 -61 -203 -136z"/>
<path d="M1071 134 c0 -11 3 -14 6 -6 3 7 2 16 -1 19 -3 4 -6 -2 -5 -13z"/>
</g>
</svg>
